<?xml version="1.0" encoding="UTF-8"?>
<!DOCTYPE svg PUBLIC "-//W3C//DTD SVG 1.1//EN" "http://www.w3.org/Graphics/SVG/1.1/DTD/svg11.dtd">
<svg version="1.1" id="Layer_1" xmlns="http://www.w3.org/2000/svg" xmlns:xlink="http://www.w3.org/1999/xlink" x="0px" y="0px" width="21px" height="21px" viewBox="0 0 21 21" enable-background="new 0 0 21 21" xml:space="preserve">
  <g id="icon">
    <path d="M7.6997,16.7459c0.0048,1.0041,0.0153,2.4281,0.0153,2.7146" fill="none" stroke="#434A54" stroke-width="1" stroke-linecap="round" stroke-miterlimit="1" stroke-linejoin="round"/>
    <path d="M13.3133,19.3949c0,-0.3777,0.0125,-2.4698,0.0125,-4.004c0,-1.0697,-0.3444,-1.7676,-0.7308,-2.1234c2.3993,-0.2838,4.92,-1.2536,4.92,-5.6577c0,-1.2519,-0.4181,-2.2748,-1.1089,-3.0778c0.1119,-0.2889,0.4808,-1.4551,-0.1056,-3.0345c0,0,-0.9036,-0.3082,-2.9602,1.1754c-0.8611,-0.2541,-1.9246,-0.3815,-2.8403,-0.3858c-0.9157,0.0043,-1.9785,0.1317,-2.8379,0.3858C5.6029,1.1894,4.6981,1.4976,4.6981,1.4976c-0.585,1.5794,-0.2162,2.7457,-0.1044,3.0345c-0.6893,0.803,-1.1102,1.8259,-1.1102,3.0778c0,4.3936,2.5159,5.3768,4.9092,5.6668c-0.3081,0.2863,-0.4464,2.3699,-0.5431,3.1111c-0.6149,0.2929,-2.1745,0.7997,-3.1355,-0.9533c0,0,-0.5697,-1.1007,-1.6518,-1.1817" fill="none" stroke="#434A54" stroke-width="1" stroke-linecap="round" stroke-miterlimit="1" stroke-linejoin="round"/>
  </g>
</svg>
